<svg xmlns="http://www.w3.org/2000/svg" version="1.1" xmlns:xlink="http://www.w3.org/1999/xlink" xmlns:svgjs="http://svgjs.dev/svgjs" width="1000" height="2000" preserveAspectRatio="none" viewBox="0 0 1000 2000">
    <g mask="url(&quot;#SvgjsMask2297&quot;)" fill="none">
        <rect width="1000" height="2000" x="0" y="0" fill="url(&quot;#SvgjsLinearGradient2298&quot;)"></rect>
        <path d="M0 106.48C60.54 30.15 96.64 43.29 198.28 0C221.64 -9.95 224.14 0 250 0C325 0 356.86 -45.14 400 0C476.31 79.86 441.3 127.42 488.89 250C491.3 256.21 495.79 252.35 500 257.58C596.58 377.35 592.05 381.66 690.48 500C717.05 531.94 714.99 558.14 750 558.14C810.54 558.14 870.83 554.89 881.58 500C901 400.82 852.31 372.69 810.34 250C786.52 180.38 796.07 170.14 750 115.38C690.9 45.14 600 32.18 600 0C600 -25.51 675 0 750 0C875 0 937.5 -62.5 1000 0C1062.5 62.5 1000 125 1000 250C1000 375 1000 375 1000 500C1000 625 1000 625 1000 750C1000 875 1000 875 1000 1000C1000 1102.74 1017.68 1110.28 1000 1205.48C994.47 1235.28 977.37 1228.37 953.57 1250C852.37 1341.98 857.86 1349.89 750 1432.69C695.03 1474.89 627.91 1455.77 627.91 1500C627.91 1558.5 672.12 1597.65 750 1638.16C858.16 1694.42 897.58 1647.73 1000 1693.55C1022.58 1703.65 1000 1721.78 1000 1750C1000 1875 1062.5 1937.5 1000 2000C937.5 2062.5 875 2000 750 2000C676.47 2000 630.08 2046.3 602.94 2000C556.8 1921.3 636.79 1859.54 603.45 1750C585.32 1690.42 540.93 1661.76 500 1661.76C471.35 1661.76 492.32 1712.07 464.29 1750C367.32 1881.19 357.14 1875 250 2000C250 2000 250 2000 250 2000C125 2000 64.02 2060.98 0 2000C-60.98 1941.93 -3.2 1880.11 0 1761.9C0.18 1755.11 6.76 1756.6 6.76 1750C6.76 1725.65 0.68 1725.18 0 1700C-2.7 1600.18 0 1600 0 1500C0 1467.74 -8.33 1466.27 0 1435.48C25.49 1341.27 67.65 1337.96 67.65 1250C67.65 1198.85 14.27 1210 0 1157.26C-19.55 1085 0 1078.63 0 1000C0 875 0 875 0 750C0 625 0 625 0 500C0 375 0 375 0 250C0 178.24 -38.6 155.15 0 106.48" stroke="rgba(43, 47, 54, 1)" stroke-width="2"></path>
        <path d="M0 222.22C113.22 167.14 139.91 119.64 250 128.38C314.91 133.53 291.94 198.01 350 250C416.94 309.95 434.62 290.84 500 352.27C567.66 415.84 553.46 430.24 616.07 500C678.46 569.51 675.51 575.21 750 630.81C842.97 700.21 856.07 683.66 950.98 750C981.07 771.04 993.24 771.07 1000 805.56C1017.75 896.07 1000 902.78 1000 1000C1000 1059.93 1026.42 1071.2 1000 1119.86C958.56 1196.2 933.1 1185.96 864.29 1250C808.1 1302.31 814.05 1352.56 750 1352.56C654.34 1352.56 639.97 1310.49 544.87 1250C514.97 1230.98 521.62 1193.55 500 1193.55C479.3 1193.55 466.97 1216.94 460.23 1250C435.72 1370.17 454.97 1375.86 437.5 1500C419.79 1625.86 440.71 1638 389.88 1750C346.96 1844.59 330.84 1844.94 250 1913.19C182.77 1969.94 175.74 1971.53 93.75 2000C50.74 2014.93 24.01 2022.87 0 2000C-22.87 1978.22 -14.86 1951.43 0 1910.71C30.75 1826.43 57.28 1835.27 91.22 1750C139.01 1629.92 150.74 1627.26 163.46 1500C175.72 1377.26 183 1363.47 141.18 1250C101.27 1141.69 57.13 1157.61 0 1056.45C-13.46 1032.61 0 1028.22 0 1000C0 875 0 875 0 750C0 703.13 -6.41 702.42 0 656.25C10.95 577.42 34.72 577.45 34.72 500C34.72 442.5 8.08 444.57 0 386.36C-9.28 319.57 0 318.18 0 250C0 236.11 -11.78 227.95 0 222.22" stroke="rgba(43, 47, 54, 1)" stroke-width="2"></path>
        <path d="M1000 208.33C970.73 208.33 889.71 70.96 889.71 0C889.71 -33.2 980.91 -36.06 1000 0C1036.06 68.11 1025.87 208.33 1000 208.33" stroke="rgba(31, 38, 55, 1)" stroke-width="2"></path>
        <path d="M750 943.4C710.16 943.4 666.67 969.84 666.67 1000C666.67 1032.23 710.6 1068.18 750 1068.18C784.18 1068.18 813.83 1032.61 813.83 1000C813.83 970.22 783.74 943.4 750 943.4" stroke="rgba(43, 47, 54, 1)" stroke-width="2"></path>
        <path d="M208.33 500C208.33 444.21 202.96 393.17 250 384.62C348.8 366.66 384.42 401.25 500 446.97C530.25 458.94 518.17 475.88 541.67 500C643.17 604.14 640.81 608.3 750 703.49C784.19 733.3 828.43 722.2 828.43 750C828.43 783.19 795.6 796.54 750 825.47C631.39 900.71 614.77 882.92 500 958.33C481.96 970.18 496.12 981.17 484.38 1000C405.21 1127.01 400.53 1124.51 318.18 1250C283.34 1303.08 277.4 1357.14 250 1357.14C225.66 1357.14 235.81 1302.25 214.71 1250C163.7 1123.68 95.39 1110.3 105.77 1000C113.03 922.8 173.94 932.32 250 875C339.8 807.32 437.5 820.63 437.5 750C437.5 668.84 336.85 666.17 250 571.43C222.26 541.17 208.33 537.61 208.33 500" stroke="rgba(31, 38, 55, 1)" stroke-width="2"></path>
        <path d="M946.81 1000C946.81 975.36 984.56 944.44 1000 944.44C1011.15 944.44 1000 972.22 1000 1000C1000 1017.13 1009.34 1034.25 1000 1034.25C982.75 1034.25 946.81 1020.27 946.81 1000" stroke="rgba(43, 47, 54, 1)" stroke-width="2"></path>
        <path d="M705.13 1250C705.13 1233.06 730.41 1210.23 750 1210.23C765.35 1210.23 775 1231.86 775 1250C775 1262.97 764.01 1272.44 750 1272.44C729.08 1272.44 705.13 1264.17 705.13 1250" stroke="rgba(43, 47, 54, 1)" stroke-width="2"></path>
        <path d="M175.68 1750C175.68 1683.19 214.63 1605.26 250 1605.26C284.53 1605.26 315.48 1682.31 315.48 1750C315.48 1792.87 283.94 1826.39 250 1826.39C214.04 1826.39 175.68 1793.76 175.68 1750" stroke="rgba(31, 38, 55, 1)" stroke-width="2"></path>
    </g>
    <defs>
        <mask id="SvgjsMask2297">
            <rect width="1000" height="2000" fill="#ffffff"></rect>
        </mask>
        <linearGradient x1="-25%" y1="12.5%" x2="125%" y2="87.5%" gradientUnits="userSpaceOnUse" id="SvgjsLinearGradient2298">
            <stop stop-color="rgba(16, 24, 42, 1)" offset="0"></stop>
            <stop stop-color="rgba(0, 8, 16, 1)" offset="0.44"></stop>
            <stop stop-color="rgba(0, 8, 12, 1)" offset="1"></stop>
        </linearGradient>
    </defs>
</svg>