<svg xmlns="http://www.w3.org/2000/svg" version="1.1" xmlns:xlink="http://www.w3.org/1999/xlink" xmlns:svgjs="http://svgjs.dev/svgjs" width="1000" height="2800" preserveAspectRatio="none" viewBox="0 0 1000 2800">
    <g mask="url(&quot;#SvgjsMask1026&quot;)" fill="none">
        <rect width="1000" height="2800" x="0" y="0" fill="url(&quot;#SvgjsLinearGradient1027&quot;)"></rect>
        <path d="M59.38 250C69.04 131.34 -23.33 66.36 27.27 0C71.98 -58.64 138.63 0 250 0C367.79 0 369.67 -5.35 485.58 0C494.67 0.42 491.29 11.54 500 11.54C532.59 11.54 533.74 1.59 568.18 0C658.74 -4.18 659.09 0 750 0C875 0 937.5 -62.5 1000 0C1062.5 62.5 1056.77 231.08 1000 250C931.77 272.74 845.32 83.33 750 83.33C694.68 83.33 714.88 164.7 698.72 250C675.41 373.04 654.28 383.22 671.05 500C679.92 561.79 713.23 607.14 750 607.14C784.39 607.14 777.73 550.93 813.38 500C902.73 372.36 948.2 250 1000 250C1041.51 250 1000 375 1000 500C1000 625 1000 625 1000 750C1000 875 1000 875 1000 1000C1000 1125 1000 1125 1000 1250C1000 1368.05 1002.22 1368.42 1000 1486.11C999.86 1493.42 995.28 1493.63 995.28 1500C995.28 1502.85 999.94 1501.3 1000 1504.55C1002.3 1626.3 1000 1627.28 1000 1750C1000 1855.47 1013.4 1860.41 1000 1960.94C996.74 1985.41 966.67 1979.08 966.67 2000C966.67 2026.39 995.83 2024.32 1000 2055.56C1012.5 2149.32 1000 2152.78 1000 2250C1000 2375 1000 2375 1000 2500C1000 2625 1000 2625 1000 2750C1000 2875 1062.5 2937.5 1000 3000C937.5 3062.5 875 3000 750 3000C625 3000 625 3000 500 3000C375 3000 375 3000 250 3000C125 3000 62.5 3062.5 0 3000C-62.5 2937.5 0 2875 0 2750C0 2642.85 -1.49 2642.78 0 2535.71C0.25 2517.78 3.47 2517.57 3.47 2500C3.47 2495.81 0.06 2496.45 0 2492.19C-1.68 2371.45 0 2371.1 0 2250C0 2155.49 -18.62 2148.51 0 2060.98C7.97 2023.51 53.19 2026.47 53.19 2000C53.19 1979.54 5.95 1995.06 0 1967.11C-20.65 1870.06 0 1858.55 0 1750C0 1625 0 1625 0 1500C0 1375 0 1375 0 1250C0 1125 0 1125 0 1000C0 875 0 875 0 750C0 625 0 625 0 500C0 417.41 -18.25 411.66 0 334.82C11.44 286.66 55.41 298.75 59.38 250" stroke="rgba(43, 47, 54, 1)" stroke-width="2"></path>
        <path d="M750 921.43C710.05 921.43 682.93 956.11 682.93 1000C682.93 1067.77 705.47 1144.74 750 1144.74C804.48 1144.74 880.95 1062.64 880.95 1000C880.95 950.99 809.06 921.43 750 921.43" stroke="rgba(43, 47, 54, 1)" stroke-width="2"></path>
        <path d="M500 1220.59C487.15 1220.59 498.2 1238.6 487.01 1250C373.2 1365.96 368.73 1362.89 250 1475.31C236.71 1487.89 226.08 1482.51 222.97 1500C201.69 1619.86 191.27 1630.17 201.22 1750C204.78 1792.91 225.4 1825.47 250 1825.47C274.79 1825.47 270.61 1784.29 300 1750C395.61 1638.44 398.05 1639.84 500 1533.78C518.21 1514.84 533.16 1524.37 540.32 1500C574.83 1382.48 598.28 1353.61 583.33 1250C578.12 1213.91 535.31 1220.59 500 1220.59" stroke="rgba(43, 47, 54, 1)" stroke-width="2"></path>
        <path d="M500 1952.53C466.44 1952.53 427.88 1964.35 427.88 2000C427.88 2086.77 469.73 2197.37 500 2197.37C529.23 2197.37 546.88 2092.12 546.88 2000C546.88 1969.7 525.94 1952.53 500 1952.53" stroke="rgba(43, 47, 54, 1)" stroke-width="2"></path>
        <path d="M137.5 250C173.46 136.06 101.75 87.03 140.91 0C158 -37.97 195.45 0 250 0C307.69 0 315.26 -21.59 365.38 0C440.26 32.26 438.97 47.44 500 107.69C565.58 172.44 605.71 167.73 618.59 250C636.41 363.89 535.36 385.35 561.4 500C592.14 635.35 739.64 628.7 732.14 750C724.18 878.7 631.54 875.18 530.49 1000C515.47 1018.56 510.6 1015.5 500 1036.76C448.27 1140.5 470.86 1156.01 405.84 1250C345.86 1336.7 328.52 1324.72 250 1398.15C194.86 1449.72 162.02 1433.81 138.51 1500C99.52 1609.74 164.93 1639.05 125 1750C95.67 1831.49 36.06 1884.87 0 1884.87C-26.44 1884.87 0 1817.43 0 1750C0 1625 0 1625 0 1500C0 1375 0 1375 0 1250C0 1156.25 -53.57 1102.06 0 1062.5C71.43 1009.75 127.96 1082.59 250 1065.38C349.55 1051.34 419.49 1068.74 443.18 1000C473.84 911.05 408.11 872.08 358.7 750C311.52 633.45 338.74 563.96 250 522.73C159.39 480.63 94.42 591.91 0 583.33C-30.58 580.55 0 541.66 0 500C0 473.22 -12.56 469.26 0 446.43C56.19 344.26 103.01 359.27 137.5 250" stroke="rgba(43, 47, 54, 1)" stroke-width="2"></path>
        <path d="M1000 26.79C988.14 26.79 962.5 7.39 962.5 0C962.5 -6.01 989.06 -7.81 1000 0C1007.81 5.58 1006.89 26.79 1000 26.79" stroke="rgba(31, 38, 55, 1)" stroke-width="2"></path>
        <path d="M901.41 500C945.39 430.47 972.63 367.92 1000 367.92C1021.93 367.92 1000 433.96 1000 500C1000 625 1000 625 1000 750C1000 832.38 1043.54 914.77 1000 914.77C922.71 914.77 783.17 854.49 758.33 750C733.87 647.1 824.55 621.51 901.41 500" stroke="rgba(43, 47, 54, 1)" stroke-width="2"></path>
        <path d="M641.13 1500C704.3 1431.36 692.66 1346.59 750 1346.59C810.78 1346.59 809.95 1426.76 877.36 1500C934.95 1562.56 965.43 1547.72 1000 1618.18C1026.75 1672.72 1000 1684.09 1000 1750C1000 1806.64 1022.55 1814.95 1000 1863.28C964.22 1939.95 883.33 1926.79 883.33 2000C883.33 2092.37 953.15 2094.04 1000 2194.44C1011.48 2219.04 1000 2222.22 1000 2250C1000 2375 1000 2375 1000 2500C1000 2534.09 1010.87 2568.18 1000 2568.18C986.67 2568.18 984.19 2525.17 951.61 2500C859.19 2428.58 838.5 2375 750 2375C692.41 2375 686.73 2429.45 659.42 2500C614.15 2616.95 583.57 2632.61 604.84 2750C628.86 2882.61 778.11 2932.97 750 3000C725.69 3057.97 625 3000 500 3000C375 3000 375 3000 250 3000C125 3000 84.9 3040.1 0 3000C-40.1 2981.07 -24.16 2931.53 0 2881.94C36.74 2806.53 103.01 2829.46 121.79 2750C148.15 2638.49 122.63 2620.37 90.28 2500C61.74 2393.81 37.28 2400.11 0 2296.88C-7.86 2275.11 0 2273.44 0 2250C0 2231.7 -10.65 2227.71 0 2213.41C82.43 2102.71 90.11 2103.75 186.17 2000C215.11 1968.75 218.8 1943.4 250 1943.4C279.56 1943.4 288.29 1965.11 307.69 2000C373.52 2118.41 352.42 2132.98 420.45 2250C448.57 2298.37 456.64 2330.77 500 2330.77C553.48 2330.77 591.73 2309.28 614.13 2250C654.23 2143.9 658.35 2110.05 625 2000C601.29 1921.76 562.5 1936.71 500 1873.42C439.06 1811.71 378.13 1812.71 378.13 1750C378.13 1685.12 435.09 1679.94 500 1618.24C566.59 1554.94 579.3 1567.18 641.13 1500" stroke="rgba(31, 38, 55, 1)" stroke-width="2"></path>
        <path d="M750 1637.76C702.43 1637.76 659.84 1696.51 659.84 1750C659.84 1796.99 702.95 1838.71 750 1838.71C801.95 1838.71 857.84 1797.51 857.84 1750C857.84 1697.04 801.43 1637.76 750 1637.76" stroke="rgba(43, 47, 54, 1)" stroke-width="2"></path>
        <path d="M750 3000C750 2948.24 921.78 2813.49 1000 2813.49C1046.78 2813.49 1053.41 2960.15 1000 3000C928.41 3053.41 750 3041.49 750 3000" stroke="rgba(43, 47, 54, 1)" stroke-width="2"></path>
        <path d="M215.63 250C215.63 137.69 189.16 30.7 250 20.83C331.34 7.63 379.19 107.87 500 203.85C523.42 222.46 538.46 222.95 538.46 250C538.46 311.24 550.12 366.78 500 380.43C405.89 406.06 356.44 377.39 250 328.57C214.25 312.17 215.63 291.56 215.63 250" stroke="rgba(31, 38, 55, 1)" stroke-width="2"></path>
        <path d="M989.44 500C990.54 491.32 997.07 485.85 1000 485.85C1002.35 485.85 1000 492.92 1000 500C1000 625 1000 625 1000 750C1000 761.37 1006.01 772.73 1000 772.73C989.34 772.73 967.4 768.88 966.67 750C962.12 632.52 973.87 623.4 989.44 500" stroke="rgba(31, 38, 55, 1)" stroke-width="2"></path>
        <path d="M0 1160.16C91.96 1127.62 139.04 1130.84 250 1161.54C301.38 1175.76 324.68 1207.82 324.68 1250C324.68 1287.54 287.84 1286.03 250 1320.99C152.53 1411.03 105.85 1389.55 54.05 1500C5.24 1604.06 69.78 1632.43 48.78 1750C42.75 1783.74 14.07 1802.63 0 1802.63C-10.32 1802.63 0 1776.32 0 1750C0 1625 0 1625 0 1500C0 1375 0 1375 0 1250C0 1205.08 -33.04 1171.85 0 1160.16" stroke="rgba(31, 38, 55, 1)" stroke-width="2"></path>
        <path d="M741.94 1500C741.94 1494.42 745.75 1488.64 750 1488.64C754.5 1488.64 759.43 1494.45 759.43 1500C759.43 1505.23 754.52 1510.2 750 1510.2C745.77 1510.2 741.94 1505.2 741.94 1500" stroke="rgba(43, 47, 54, 1)" stroke-width="2"></path>
        <path d="M456.25 1750C456.25 1726.71 476.53 1702.7 500 1702.7C527.09 1702.7 557.38 1726.81 557.38 1750C557.38 1772.61 527.2 1794.3 500 1794.3C476.64 1794.3 456.25 1772.51 456.25 1750" stroke="rgba(31, 38, 55, 1)" stroke-width="2"></path>
        <path d="M980.39 1750C980.39 1741.28 994.16 1731.82 1000 1731.82C1003.97 1731.82 1000 1740.91 1000 1750C1000 1757.82 1003.76 1765.63 1000 1765.63C993.96 1765.63 980.39 1758.18 980.39 1750" stroke="rgba(31, 38, 55, 1)" stroke-width="2"></path>
        <path d="M703.13 2000C703.13 1964.1 726.09 1939.52 750 1939.52C774.52 1939.52 800 1963.46 800 2000C800 2118.7 774.25 2250 750 2250C725.81 2250 703.13 2119.34 703.13 2000" stroke="rgba(31, 38, 55, 1)" stroke-width="2"></path>
        <path d="M121.79 2250C137.71 2162.33 194.98 2098.48 250 2098.48C296.96 2098.48 275.07 2183.4 325.76 2250C400.07 2347.62 413.45 2337.91 500 2426.92C534.99 2462.91 568.84 2457.67 568.84 2500C568.84 2570.83 563.36 2613.11 500 2653.23C403.94 2714.07 337.61 2743.49 250 2701.92C176.15 2666.88 206.32 2603.05 177.08 2500C142.21 2377.09 101.25 2363.09 121.79 2250" stroke="rgba(31, 38, 55, 1)" stroke-width="2"></path>
        <path d="M425 3000C425 2986.35 468.76 2950 500 2950C519.66 2950 526.79 2983.02 526.79 3000C526.79 3008.02 513.39 3000 500 3000C462.5 3000 425 3011.35 425 3000" stroke="rgba(43, 47, 54, 1)" stroke-width="2"></path>
        <path d="M882.98 3000C882.98 2975.77 963.38 2912.7 1000 2912.7C1021.89 2912.7 1025 2981.35 1000 3000C966.49 3025 882.98 3019.42 882.98 3000" stroke="rgba(31, 38, 55, 1)" stroke-width="2"></path>
    </g>
    <defs>
        <mask id="SvgjsMask1026">
            <rect width="1000" height="2800" fill="#ffffff"></rect>
        </mask>
        <linearGradient x1="-45%" y1="16.07%" x2="145%" y2="83.93%" gradientUnits="userSpaceOnUse" id="SvgjsLinearGradient1027">
            <stop stop-color="rgba(16, 24, 42, 1)" offset="0"></stop>
            <stop stop-color="rgba(0, 8, 16, 1)" offset="0.44"></stop>
            <stop stop-color="rgba(0, 8, 12, 1)" offset="1"></stop>
        </linearGradient>
    </defs>
</svg>